<?xml version="1.0" encoding="UTF-8"?>
<svg xmlns="http://www.w3.org/2000/svg" xmlns:xlink="http://www.w3.org/1999/xlink" width="107px" height="21px" viewBox="0 0 106 21" version="1.1">
<g id="surface1">
<path style=" stroke:none;fill-rule:evenodd;fill:rgb(100%,100%,100%);fill-opacity:1;" d="M 67.753906 9.414062 C 67.753906 6.121094 70.460938 3.472656 73.742188 3.625 C 76.671875 3.761719 79.027344 6.152344 79.183594 9.097656 C 79.359375 12.4375 76.734375 15.207031 73.472656 15.207031 C 72.191406 15.207031 71.011719 14.78125 70.058594 14.0625 L 70.058594 20.855469 L 67.753906 20.855469 Z M 96.683594 3.570312 L 96.683594 9.269531 L 96.6875 9.324219 C 96.714844 11.21875 98.253906 12.742188 100.144531 12.742188 C 102.058594 12.742188 103.605469 11.1875 103.605469 9.269531 L 103.605469 3.570312 L 105.914062 3.570312 L 105.914062 14.964844 C 105.914062 18.164062 103.332031 20.757812 100.144531 20.757812 C 99.351562 20.757812 98.597656 20.597656 97.910156 20.304688 L 98.996094 18.242188 C 99.355469 18.371094 99.742188 18.441406 100.144531 18.441406 C 102.058594 18.441406 103.605469 16.882812 103.605469 14.964844 C 103.605469 14.933594 103.605469 14.898438 103.605469 14.867188 L 103.605469 13.898438 C 102.640625 14.628906 101.441406 15.0625 100.140625 15.0625 C 96.992188 15.0625 94.429688 12.519531 94.378906 9.363281 L 94.378906 3.570312 Z M 26.5625 3.582031 C 28.914062 3.582031 30.9375 4.980469 31.847656 6.988281 L 29.683594 7.921875 C 29.132812 6.761719 27.949219 5.957031 26.574219 5.957031 C 24.675781 5.957031 23.136719 7.492188 23.136719 9.390625 C 23.136719 11.285156 24.675781 12.820312 26.574219 12.820312 C 28.082031 12.820312 29.359375 11.855469 29.824219 10.507812 L 32.015625 11.355469 C 31.203125 13.578125 29.070312 15.167969 26.5625 15.167969 C 23.355469 15.167969 20.761719 12.574219 20.761719 9.375 C 20.761719 6.175781 23.355469 3.582031 26.5625 3.582031 Z M 52.179688 3.570312 C 52.984375 3.570312 53.746094 3.738281 54.441406 4.035156 L 53.390625 6.109375 C 53.015625 5.964844 52.605469 5.890625 52.179688 5.890625 C 50.269531 5.890625 48.71875 7.445312 48.71875 9.363281 L 48.71875 15.15625 L 46.414062 15.15625 L 46.414062 9.363281 C 46.414062 6.164062 48.996094 3.570312 52.179688 3.570312 Z M 86.882812 3.570312 C 90.066406 3.570312 92.648438 6.164062 92.648438 9.363281 L 92.648438 15.15625 L 90.339844 15.15625 L 90.339844 14 C 89.378906 14.726562 88.179688 15.15625 86.882812 15.15625 C 83.695312 15.15625 81.113281 12.5625 81.113281 9.363281 C 81.113281 6.164062 83.695312 3.570312 86.882812 3.570312 Z M 38.914062 3.570312 C 42.101562 3.570312 44.683594 6.164062 44.683594 9.363281 L 44.683594 15.15625 L 42.375 15.15625 L 42.375 14 C 41.414062 14.726562 40.214844 15.15625 38.914062 15.15625 C 35.730469 15.15625 33.148438 12.5625 33.148438 9.363281 C 33.148438 6.164062 35.730469 3.570312 38.914062 3.570312 Z M 60.300781 3.535156 C 62.3125 3.535156 64.101562 4.550781 65.125 6.113281 C 65.5625 6.777344 65.78125 7.113281 65.78125 7.113281 L 58.152344 12.085938 C 58.75 12.554688 59.5 12.832031 60.3125 12.832031 C 61.867188 12.832031 63.179688 11.824219 63.636719 10.425781 L 65.996094 10.425781 C 65.484375 13.101562 63.128906 15.121094 60.300781 15.121094 C 57.097656 15.121094 54.5 12.527344 54.5 9.328125 C 54.5 6.128906 57.097656 3.535156 60.300781 3.535156 Z M 73.53125 5.917969 C 71.628906 5.917969 70.089844 7.488281 70.089844 9.425781 C 70.089844 11.359375 71.628906 12.929688 73.53125 12.929688 C 75.429688 12.929688 76.972656 11.359375 76.972656 9.425781 C 76.972656 7.488281 75.429688 5.917969 73.53125 5.917969 Z M 86.917969 5.957031 C 85.027344 5.957031 83.492188 7.492188 83.492188 9.390625 C 83.492188 11.285156 85.027344 12.820312 86.917969 12.820312 C 88.808594 12.820312 90.339844 11.285156 90.339844 9.390625 C 90.339844 7.492188 88.808594 5.957031 86.917969 5.957031 Z M 38.953125 5.957031 C 37.0625 5.957031 35.527344 7.492188 35.527344 9.390625 C 35.527344 11.285156 37.0625 12.820312 38.953125 12.820312 C 40.839844 12.820312 42.375 11.285156 42.375 9.390625 C 42.375 7.492188 40.839844 5.957031 38.953125 5.957031 Z M 60.3125 5.898438 C 58.382812 5.898438 56.820312 7.460938 56.820312 9.390625 C 56.820312 9.664062 56.851562 9.925781 56.910156 10.183594 L 62.410156 6.59375 C 61.824219 6.160156 61.101562 5.898438 60.3125 5.898438 Z M 60.3125 5.898438 "/>
<path style=" stroke:none;fill-rule:evenodd;fill:rgb(25.882353%,52.156863%,97.647059%);fill-opacity:1;" d="M 3.878906 1.59375 L 5.179688 3.53125 C 8.363281 1.371094 12.691406 2.21875 14.84375 5.425781 C 17.015625 8.660156 16.140625 13.058594 12.886719 15.199219 C 9.703125 17.292969 5.386719 16.398438 3.277344 13.207031 C 2.945312 12.707031 2.6875 12.179688 2.5 11.636719 C 2.390625 11.320312 2.511719 10.972656 2.785156 10.785156 L 7.773438 7.402344 C 8.878906 6.652344 10.390625 6.988281 11.078125 8.160156 C 11.664062 9.164062 11.410156 10.476562 10.492188 11.1875 C 9.421875 12.011719 7.894531 11.75 7.152344 10.640625 L 5.226562 11.945312 C 6.703125 14.144531 9.710938 14.679688 11.851562 13.082031 C 13.761719 11.652344 14.277344 8.960938 13.039062 6.914062 C 11.648438 4.625 8.660156 3.984375 6.476562 5.464844 L 2.175781 8.382812 L 0.964844 9.203125 L 0.964844 9.207031 C 0.140625 9.804688 -0.207031 10.878906 0.125 11.855469 L 0.304688 12.390625 L 0.300781 12.390625 C 0.308594 12.410156 0.316406 12.429688 0.324219 12.453125 C 0.582031 13.179688 0.933594 13.886719 1.382812 14.554688 C 4.273438 18.867188 10.121094 19.980469 14.378906 17.003906 C 18.484375 14.136719 19.582031 8.441406 16.839844 4.230469 C 13.996094 -0.136719 8.164062 -1.3125 3.878906 1.59375 "/>
</g>
</svg>
